<mxfile host="65bd71144e" scale="7" border="0">
    <diagram id="alt9co2tQXh6Qdg2a9BD" name="Page-1">
        <mxGraphModel dx="1297" dy="472" grid="1" gridSize="10" guides="1" tooltips="1" connect="1" arrows="1" fold="1" page="1" pageScale="1" pageWidth="850" pageHeight="1100" background="#1A1A1A" math="0" shadow="0">
            <root>
                <mxCell id="0"/>
                <mxCell id="1" parent="0"/>
                <mxCell id="25" value="" style="endArrow=open;html=1;endSize=12;startArrow=diamondThin;startSize=14;startFill=0;edgeStyle=orthogonalEdgeStyle;fontColor=#FFFFFF;exitX=1;exitY=0.5;exitDx=0;exitDy=0;entryX=0;entryY=0.5;entryDx=0;entryDy=0;strokeColor=#FFFFFF;" parent="1" source="47" target="29" edge="1">
                    <mxGeometry relative="1" as="geometry">
                        <mxPoint x="880" y="377.4999999999999" as="sourcePoint"/>
                        <mxPoint x="980" y="319" as="targetPoint"/>
                    </mxGeometry>
                </mxCell>
                <mxCell id="29" value="&lt;&lt;interface&gt;&gt;&#10;TradingStrategyInterface" style="swimlane;fontStyle=1;align=center;verticalAlign=top;childLayout=stackLayout;horizontal=1;startSize=38;horizontalStack=0;resizeParent=1;resizeParentMax=0;resizeLast=0;collapsible=1;marginBottom=0;fontColor=#ffffff;fillColor=#a20025;strokeColor=#6F0000;" parent="1" vertex="1">
                    <mxGeometry x="960" y="361" width="220" height="72" as="geometry"/>
                </mxCell>
                <mxCell id="31" value="" style="line;strokeWidth=1;fillColor=none;align=left;verticalAlign=middle;spacingTop=-1;spacingLeft=3;spacingRight=3;rotatable=0;labelPosition=right;points=[];portConstraint=eastwest;strokeColor=inherit;fontColor=#FFFFFF;" parent="29" vertex="1">
                    <mxGeometry y="38" width="220" height="8" as="geometry"/>
                </mxCell>
                <mxCell id="38" value="+ execute(market_data: pd.DataFrame)" style="text;strokeColor=none;fillColor=none;align=left;verticalAlign=top;spacingLeft=4;spacingRight=4;overflow=hidden;rotatable=0;points=[[0,0.5],[1,0.5]];portConstraint=eastwest;fontColor=#FFFFFF;" parent="29" vertex="1">
                    <mxGeometry y="46" width="220" height="26" as="geometry"/>
                </mxCell>
                <mxCell id="42" value="&lt;&lt;abstract&gt;&gt;&#10;TradingBot" style="swimlane;fontStyle=1;align=center;verticalAlign=top;childLayout=stackLayout;horizontal=1;startSize=40;horizontalStack=0;resizeParent=1;resizeParentMax=0;resizeLast=0;collapsible=1;marginBottom=0;fontColor=#ffffff;fillColor=#6a00ff;strokeColor=#3700CC;" parent="1" vertex="1">
                    <mxGeometry x="580" y="258" width="280" height="282" as="geometry"/>
                </mxCell>
                <mxCell id="43" value="+ strategy: TradingStrategyInterface" style="text;strokeColor=none;fillColor=none;align=left;verticalAlign=top;spacingLeft=4;spacingRight=4;overflow=hidden;rotatable=0;points=[[0,0.5],[1,0.5]];portConstraint=eastwest;fontColor=#FFFFFF;" parent="42" vertex="1">
                    <mxGeometry y="40" width="280" height="26" as="geometry"/>
                </mxCell>
                <mxCell id="44" value="+ observers: List[Observer]" style="text;strokeColor=none;fillColor=none;align=left;verticalAlign=top;spacingLeft=4;spacingRight=4;overflow=hidden;rotatable=0;points=[[0,0.5],[1,0.5]];portConstraint=eastwest;fontColor=#FFFFFF;" parent="42" vertex="1">
                    <mxGeometry y="66" width="280" height="26" as="geometry"/>
                </mxCell>
                <mxCell id="45" value="" style="line;strokeWidth=1;fillColor=none;align=left;verticalAlign=middle;spacingTop=-1;spacingLeft=3;spacingRight=3;rotatable=0;labelPosition=right;points=[];portConstraint=eastwest;strokeColor=inherit;fontColor=#FFFFFF;" parent="42" vertex="1">
                    <mxGeometry y="92" width="280" height="8" as="geometry"/>
                </mxCell>
                <mxCell id="46" value="+ set_strategy(strategy: TradingStrategyInterface)" style="text;strokeColor=none;fillColor=none;align=left;verticalAlign=top;spacingLeft=4;spacingRight=4;overflow=hidden;rotatable=0;points=[[0,0.5],[1,0.5]];portConstraint=eastwest;fontColor=#FFFFFF;" parent="42" vertex="1">
                    <mxGeometry y="100" width="280" height="26" as="geometry"/>
                </mxCell>
                <mxCell id="47" value="+ attach_observer(observer: Observer)" style="text;strokeColor=none;fillColor=none;align=left;verticalAlign=top;spacingLeft=4;spacingRight=4;overflow=hidden;rotatable=0;points=[[0,0.5],[1,0.5]];portConstraint=eastwest;fontColor=#FFFFFF;" parent="42" vertex="1">
                    <mxGeometry y="126" width="280" height="26" as="geometry"/>
                </mxCell>
                <mxCell id="48" value="+ detach_observer(observer: Observer)" style="text;strokeColor=none;fillColor=none;align=left;verticalAlign=top;spacingLeft=4;spacingRight=4;overflow=hidden;rotatable=0;points=[[0,0.5],[1,0.5]];portConstraint=eastwest;fontColor=#FFFFFF;" parent="42" vertex="1">
                    <mxGeometry y="152" width="280" height="26" as="geometry"/>
                </mxCell>
                <mxCell id="49" value="+ notify_observers(message: str)" style="text;strokeColor=none;fillColor=none;align=left;verticalAlign=top;spacingLeft=4;spacingRight=4;overflow=hidden;rotatable=0;points=[[0,0.5],[1,0.5]];portConstraint=eastwest;fontColor=#FFFFFF;" parent="42" vertex="1">
                    <mxGeometry y="178" width="280" height="26" as="geometry"/>
                </mxCell>
                <mxCell id="50" value="+ run(market_data: pd.DataFrame) {abstract}" style="text;strokeColor=none;fillColor=none;align=left;verticalAlign=top;spacingLeft=4;spacingRight=4;overflow=hidden;rotatable=0;points=[[0,0.5],[1,0.5]];portConstraint=eastwest;fontColor=#FFFFFF;fontStyle=2" parent="42" vertex="1">
                    <mxGeometry y="204" width="280" height="26" as="geometry"/>
                </mxCell>
                <mxCell id="51" value="# _get_market_info(market_data: pd.DataFrame)" style="text;strokeColor=none;fillColor=none;align=left;verticalAlign=top;spacingLeft=4;spacingRight=4;overflow=hidden;rotatable=0;points=[[0,0.5],[1,0.5]];portConstraint=eastwest;fontColor=#FFFFFF;" parent="42" vertex="1">
                    <mxGeometry y="230" width="280" height="26" as="geometry"/>
                </mxCell>
                <mxCell id="52" value="# _get_timestamp()Â " style="text;strokeColor=none;fillColor=none;align=left;verticalAlign=top;spacingLeft=4;spacingRight=4;overflow=hidden;rotatable=0;points=[[0,0.5],[1,0.5]];portConstraint=eastwest;fontColor=#FFFFFF;" parent="42" vertex="1">
                    <mxGeometry y="256" width="280" height="26" as="geometry"/>
                </mxCell>
                <mxCell id="53" value="MomentumStrategy" style="swimlane;fontStyle=1;align=center;verticalAlign=top;childLayout=stackLayout;horizontal=1;startSize=24;horizontalStack=0;resizeParent=1;resizeParentMax=0;resizeLast=0;collapsible=1;marginBottom=0;fontColor=#ffffff;fillColor=#0050ef;strokeColor=#001DBC;" parent="1" vertex="1">
                    <mxGeometry x="1210" y="482" width="220" height="58" as="geometry"/>
                </mxCell>
                <mxCell id="54" value="" style="line;strokeWidth=1;fillColor=none;align=left;verticalAlign=middle;spacingTop=-1;spacingLeft=3;spacingRight=3;rotatable=0;labelPosition=right;points=[];portConstraint=eastwest;strokeColor=inherit;fontColor=#FFFFFF;" parent="53" vertex="1">
                    <mxGeometry y="24" width="220" height="8" as="geometry"/>
                </mxCell>
                <mxCell id="55" value="+ execute(market_data: pd.DataFrame)" style="text;strokeColor=none;fillColor=none;align=left;verticalAlign=top;spacingLeft=4;spacingRight=4;overflow=hidden;rotatable=0;points=[[0,0.5],[1,0.5]];portConstraint=eastwest;fontColor=#FFFFFF;" parent="53" vertex="1">
                    <mxGeometry y="32" width="220" height="26" as="geometry"/>
                </mxCell>
                <mxCell id="56" value="SVMStrategy" style="swimlane;fontStyle=1;align=center;verticalAlign=top;childLayout=stackLayout;horizontal=1;startSize=24;horizontalStack=0;resizeParent=1;resizeParentMax=0;resizeLast=0;collapsible=1;marginBottom=0;fontColor=#ffffff;fillColor=#0050ef;strokeColor=#001DBC;" parent="1" vertex="1">
                    <mxGeometry x="1210" y="258" width="220" height="58" as="geometry"/>
                </mxCell>
                <mxCell id="57" value="" style="line;strokeWidth=1;fillColor=none;align=left;verticalAlign=middle;spacingTop=-1;spacingLeft=3;spacingRight=3;rotatable=0;labelPosition=right;points=[];portConstraint=eastwest;strokeColor=inherit;fontColor=#FFFFFF;" parent="56" vertex="1">
                    <mxGeometry y="24" width="220" height="8" as="geometry"/>
                </mxCell>
                <mxCell id="58" value="+ execute(market_data: pd.DataFrame)" style="text;strokeColor=none;fillColor=none;align=left;verticalAlign=top;spacingLeft=4;spacingRight=4;overflow=hidden;rotatable=0;points=[[0,0.5],[1,0.5]];portConstraint=eastwest;fontColor=#FFFFFF;" parent="56" vertex="1">
                    <mxGeometry y="32" width="220" height="26" as="geometry"/>
                </mxCell>
                <mxCell id="59" value="MovingAverageStrategy" style="swimlane;fontStyle=1;align=center;verticalAlign=top;childLayout=stackLayout;horizontal=1;startSize=24;horizontalStack=0;resizeParent=1;resizeParentMax=0;resizeLast=0;collapsible=1;marginBottom=0;fontColor=#ffffff;fillColor=#0050ef;strokeColor=#001DBC;" parent="1" vertex="1">
                    <mxGeometry x="1260" y="370" width="220" height="58" as="geometry"/>
                </mxCell>
                <mxCell id="60" value="" style="line;strokeWidth=1;fillColor=none;align=left;verticalAlign=middle;spacingTop=-1;spacingLeft=3;spacingRight=3;rotatable=0;labelPosition=right;points=[];portConstraint=eastwest;strokeColor=inherit;fontColor=#FFFFFF;" parent="59" vertex="1">
                    <mxGeometry y="24" width="220" height="8" as="geometry"/>
                </mxCell>
                <mxCell id="61" value="+ execute(market_data: pd.DataFrame)" style="text;strokeColor=none;fillColor=none;align=left;verticalAlign=top;spacingLeft=4;spacingRight=4;overflow=hidden;rotatable=0;points=[[0,0.5],[1,0.5]];portConstraint=eastwest;fontColor=#FFFFFF;" parent="59" vertex="1">
                    <mxGeometry y="32" width="220" height="26" as="geometry"/>
                </mxCell>
                <mxCell id="62" value="" style="endArrow=block;dashed=1;endFill=0;endSize=12;html=1;fontColor=#FFFFFF;exitX=0;exitY=0.5;exitDx=0;exitDy=0;entryX=1;entryY=0;entryDx=0;entryDy=0;strokeColor=#FFFFFF;" parent="1" source="56" target="29" edge="1">
                    <mxGeometry width="160" relative="1" as="geometry">
                        <mxPoint x="920" y="516" as="sourcePoint"/>
                        <mxPoint x="1080" y="516" as="targetPoint"/>
                    </mxGeometry>
                </mxCell>
                <mxCell id="63" value="" style="endArrow=block;dashed=1;endFill=0;endSize=12;html=1;fontColor=#FFFFFF;exitX=0;exitY=0.5;exitDx=0;exitDy=0;strokeColor=#FFFFFF;" parent="1" source="59" edge="1">
                    <mxGeometry width="160" relative="1" as="geometry">
                        <mxPoint x="1230" y="317" as="sourcePoint"/>
                        <mxPoint x="1180" y="399" as="targetPoint"/>
                    </mxGeometry>
                </mxCell>
                <mxCell id="64" value="" style="endArrow=block;dashed=1;endFill=0;endSize=12;html=1;fontColor=#FFFFFF;exitX=0;exitY=0.5;exitDx=0;exitDy=0;entryX=1;entryY=1;entryDx=0;entryDy=0;strokeColor=#FFFFFF;" parent="1" source="53" target="29" edge="1">
                    <mxGeometry width="160" relative="1" as="geometry">
                        <mxPoint x="1240" y="327" as="sourcePoint"/>
                        <mxPoint x="1200" y="417" as="targetPoint"/>
                    </mxGeometry>
                </mxCell>
                <mxCell id="74" value="" style="endArrow=open;endFill=1;endSize=12;html=1;fontColor=#FFFFFF;exitX=0;exitY=0.5;exitDx=0;exitDy=0;entryX=0.497;entryY=1.005;entryDx=0;entryDy=0;entryPerimeter=0;strokeColor=#FFFFFF;" parent="1" source="139" target="52" edge="1">
                    <mxGeometry width="160" relative="1" as="geometry">
                        <mxPoint x="860" y="621" as="sourcePoint"/>
                        <mxPoint x="730" y="578" as="targetPoint"/>
                        <Array as="points">
                            <mxPoint x="720" y="677"/>
                        </Array>
                    </mxGeometry>
                </mxCell>
                <mxCell id="75" value="" style="endArrow=open;endSize=12;dashed=1;html=1;fontColor=#FFFFFF;entryX=0.499;entryY=1.004;entryDx=0;entryDy=0;entryPerimeter=0;exitX=0.5;exitY=0;exitDx=0;exitDy=0;strokeColor=#FFFFFF;" parent="1" source="127" target="38" edge="1">
                    <mxGeometry width="160" relative="1" as="geometry">
                        <mxPoint x="1070" y="568" as="sourcePoint"/>
                        <mxPoint x="1020" y="468" as="targetPoint"/>
                    </mxGeometry>
                </mxCell>
                <mxCell id="76" value="&lt;&lt;interface&gt;&gt;&#10;Observer" style="swimlane;fontStyle=1;align=center;verticalAlign=top;childLayout=stackLayout;horizontal=1;startSize=38;horizontalStack=0;resizeParent=1;resizeParentMax=0;resizeLast=0;collapsible=1;marginBottom=0;fontColor=#ffffff;fillColor=#a20025;strokeColor=#6F0000;" parent="1" vertex="1">
                    <mxGeometry x="260" y="361" width="220" height="72" as="geometry"/>
                </mxCell>
                <mxCell id="77" value="" style="line;strokeWidth=1;fillColor=none;align=left;verticalAlign=middle;spacingTop=-1;spacingLeft=3;spacingRight=3;rotatable=0;labelPosition=right;points=[];portConstraint=eastwest;strokeColor=inherit;fontColor=#FFFFFF;" parent="76" vertex="1">
                    <mxGeometry y="38" width="220" height="8" as="geometry"/>
                </mxCell>
                <mxCell id="78" value="+ update(message: str)" style="text;strokeColor=none;fillColor=none;align=left;verticalAlign=top;spacingLeft=4;spacingRight=4;overflow=hidden;rotatable=0;points=[[0,0.5],[1,0.5]];portConstraint=eastwest;fontColor=#FFFFFF;" parent="76" vertex="1">
                    <mxGeometry y="46" width="220" height="26" as="geometry"/>
                </mxCell>
                <mxCell id="79" value="" style="endArrow=open;html=1;endSize=12;startArrow=diamondThin;startSize=14;startFill=0;edgeStyle=orthogonalEdgeStyle;fontColor=#FFFFFF;exitX=0;exitY=0.5;exitDx=0;exitDy=0;entryX=1;entryY=0.5;entryDx=0;entryDy=0;strokeColor=#FFFFFF;" parent="1" source="47" target="76" edge="1">
                    <mxGeometry relative="1" as="geometry">
                        <mxPoint x="870" y="407" as="sourcePoint"/>
                        <mxPoint x="970" y="407" as="targetPoint"/>
                    </mxGeometry>
                </mxCell>
                <mxCell id="80" value="ConsoleLogger" style="swimlane;fontStyle=1;align=center;verticalAlign=top;childLayout=stackLayout;horizontal=1;startSize=24;horizontalStack=0;resizeParent=1;resizeParentMax=0;resizeLast=0;collapsible=1;marginBottom=0;fontColor=#ffffff;fillColor=#0050ef;strokeColor=#001DBC;" parent="1" vertex="1">
                    <mxGeometry x="50" y="370" width="140" height="58" as="geometry"/>
                </mxCell>
                <mxCell id="81" value="" style="line;strokeWidth=1;fillColor=none;align=left;verticalAlign=middle;spacingTop=-1;spacingLeft=3;spacingRight=3;rotatable=0;labelPosition=right;points=[];portConstraint=eastwest;strokeColor=inherit;fontColor=#FFFFFF;" parent="80" vertex="1">
                    <mxGeometry y="24" width="140" height="8" as="geometry"/>
                </mxCell>
                <mxCell id="82" value="+ update(message: str)" style="text;strokeColor=none;fillColor=none;align=left;verticalAlign=top;spacingLeft=4;spacingRight=4;overflow=hidden;rotatable=0;points=[[0,0.5],[1,0.5]];portConstraint=eastwest;fontColor=#FFFFFF;" parent="80" vertex="1">
                    <mxGeometry y="32" width="140" height="26" as="geometry"/>
                </mxCell>
                <mxCell id="83" value="TelegramLogger" style="swimlane;fontStyle=1;align=center;verticalAlign=top;childLayout=stackLayout;horizontal=1;startSize=24;horizontalStack=0;resizeParent=1;resizeParentMax=0;resizeLast=0;collapsible=1;marginBottom=0;fontColor=#ffffff;fillColor=#0050ef;strokeColor=#001DBC;" parent="1" vertex="1">
                    <mxGeometry x="100" y="258" width="135" height="58" as="geometry"/>
                </mxCell>
                <mxCell id="84" value="" style="line;strokeWidth=1;fillColor=none;align=left;verticalAlign=middle;spacingTop=-1;spacingLeft=3;spacingRight=3;rotatable=0;labelPosition=right;points=[];portConstraint=eastwest;strokeColor=inherit;fontColor=#FFFFFF;" parent="83" vertex="1">
                    <mxGeometry y="24" width="135" height="8" as="geometry"/>
                </mxCell>
                <mxCell id="85" value="+ update(message: str)" style="text;strokeColor=none;fillColor=none;align=left;verticalAlign=top;spacingLeft=4;spacingRight=4;overflow=hidden;rotatable=0;points=[[0,0.5],[1,0.5]];portConstraint=eastwest;fontColor=#FFFFFF;" parent="83" vertex="1">
                    <mxGeometry y="32" width="135" height="26" as="geometry"/>
                </mxCell>
                <mxCell id="86" value="FileLogger" style="swimlane;fontStyle=1;align=center;verticalAlign=top;childLayout=stackLayout;horizontal=1;startSize=24;horizontalStack=0;resizeParent=1;resizeParentMax=0;resizeLast=0;collapsible=1;marginBottom=0;fontColor=#ffffff;fillColor=#0050ef;strokeColor=#001DBC;" parent="1" vertex="1">
                    <mxGeometry x="100" y="482" width="135" height="58" as="geometry"/>
                </mxCell>
                <mxCell id="87" value="" style="line;strokeWidth=1;fillColor=none;align=left;verticalAlign=middle;spacingTop=-1;spacingLeft=3;spacingRight=3;rotatable=0;labelPosition=right;points=[];portConstraint=eastwest;strokeColor=inherit;fontColor=#FFFFFF;" parent="86" vertex="1">
                    <mxGeometry y="24" width="135" height="8" as="geometry"/>
                </mxCell>
                <mxCell id="88" value="+ update(message: str)" style="text;strokeColor=none;fillColor=none;align=left;verticalAlign=top;spacingLeft=4;spacingRight=4;overflow=hidden;rotatable=0;points=[[0,0.5],[1,0.5]];portConstraint=eastwest;fontColor=#FFFFFF;" parent="86" vertex="1">
                    <mxGeometry y="32" width="135" height="26" as="geometry"/>
                </mxCell>
                <mxCell id="92" value="" style="endArrow=block;dashed=1;endFill=0;endSize=12;html=1;fontColor=#FFFFFF;exitX=0.5;exitY=0;exitDx=0;exitDy=0;entryX=0;entryY=1;entryDx=0;entryDy=0;entryPerimeter=0;strokeColor=#FFFFFF;" parent="1" source="86" target="78" edge="1">
                    <mxGeometry width="160" relative="1" as="geometry">
                        <mxPoint x="295" y="505.43000000000006" as="sourcePoint"/>
                        <mxPoint x="455" y="505.43000000000006" as="targetPoint"/>
                    </mxGeometry>
                </mxCell>
                <mxCell id="93" value="" style="endArrow=block;dashed=1;endFill=0;endSize=12;html=1;fontColor=#FFFFFF;entryX=0.001;entryY=0.509;entryDx=0;entryDy=0;entryPerimeter=0;strokeColor=#FFFFFF;" parent="1" target="76" edge="1">
                    <mxGeometry width="160" relative="1" as="geometry">
                        <mxPoint x="190" y="398" as="sourcePoint"/>
                        <mxPoint x="380" y="443" as="targetPoint"/>
                    </mxGeometry>
                </mxCell>
                <mxCell id="94" value="" style="endArrow=block;dashed=1;endFill=0;endSize=12;html=1;fontColor=#FFFFFF;exitX=0.495;exitY=1.005;exitDx=0;exitDy=0;entryX=0;entryY=0;entryDx=0;entryDy=0;exitPerimeter=0;strokeColor=#FFFFFF;" parent="1" source="85" target="76" edge="1">
                    <mxGeometry width="160" relative="1" as="geometry">
                        <mxPoint x="195" y="516" as="sourcePoint"/>
                        <mxPoint x="380.0000000000002" y="443" as="targetPoint"/>
                    </mxGeometry>
                </mxCell>
                <mxCell id="96" value="BinanceTradingBot" style="swimlane;fontStyle=1;align=center;verticalAlign=top;childLayout=stackLayout;horizontal=1;startSize=26;horizontalStack=0;resizeParent=1;resizeParentMax=0;resizeLast=0;collapsible=1;marginBottom=0;fontColor=#ffffff;fillColor=#0050ef;strokeColor=#001DBC;" parent="1" vertex="1">
                    <mxGeometry x="620" y="128" width="200" height="60" as="geometry"/>
                </mxCell>
                <mxCell id="98" value="" style="line;strokeWidth=1;fillColor=none;align=left;verticalAlign=middle;spacingTop=-1;spacingLeft=3;spacingRight=3;rotatable=0;labelPosition=right;points=[];portConstraint=eastwest;strokeColor=inherit;fontColor=#FFFFFF;" parent="96" vertex="1">
                    <mxGeometry y="26" width="200" height="8" as="geometry"/>
                </mxCell>
                <mxCell id="99" value="+ run(market_data: pd.DataFrame)" style="text;strokeColor=none;fillColor=none;align=left;verticalAlign=top;spacingLeft=4;spacingRight=4;overflow=hidden;rotatable=0;points=[[0,0.5],[1,0.5]];portConstraint=eastwest;fontColor=#FFFFFF;" parent="96" vertex="1">
                    <mxGeometry y="34" width="200" height="26" as="geometry"/>
                </mxCell>
                <mxCell id="101" value="" style="endArrow=block;endSize=16;endFill=0;html=1;fontColor=#FFFFFF;exitX=0.503;exitY=1;exitDx=0;exitDy=0;exitPerimeter=0;entryX=0.5;entryY=0;entryDx=0;entryDy=0;strokeColor=#FFFFFF;" parent="1" source="99" target="42" edge="1">
                    <mxGeometry width="160" relative="1" as="geometry">
                        <mxPoint x="760" y="328" as="sourcePoint"/>
                        <mxPoint x="920" y="328" as="targetPoint"/>
                    </mxGeometry>
                </mxCell>
                <mxCell id="104" value="&lt;h1&gt;&lt;font color=&quot;#f70202&quot;&gt;README&lt;/font&gt;&lt;/h1&gt;&lt;p&gt;&lt;font color=&quot;#ffffff&quot;&gt;The nomenclature used for the color codes in this class diagram follows a scheme that I find easy to read.&lt;/font&gt;&lt;/p&gt;&lt;p&gt;&lt;font color=&quot;#6a00ff&quot;&gt;Abstract -&amp;gt; Purple&lt;/font&gt;&lt;/p&gt;&lt;p&gt;&lt;font color=&quot;#a20025&quot;&gt;Interface -&amp;gt; Burgundy&lt;/font&gt;&lt;/p&gt;&lt;p&gt;&lt;font color=&quot;#0050ef&quot;&gt;Concrete -&amp;gt; Blue&lt;/font&gt;&lt;/p&gt;" style="text;html=1;strokeColor=none;fillColor=none;spacing=5;spacingTop=-20;whiteSpace=wrap;overflow=hidden;rounded=0;labelBackgroundColor=none;fontColor=default;" parent="1" vertex="1">
                    <mxGeometry x="350" y="108" width="190" height="200" as="geometry"/>
                </mxCell>
                <mxCell id="127" value="&lt;&lt;abstract&gt;&gt;&#10;StrategyFactoryClient" style="swimlane;fontStyle=1;align=center;verticalAlign=top;childLayout=stackLayout;horizontal=1;startSize=40;horizontalStack=0;resizeParent=1;resizeParentMax=0;resizeLast=0;collapsible=1;marginBottom=0;fontColor=#ffffff;fillColor=#6a00ff;strokeColor=#3700CC;" parent="1" vertex="1">
                    <mxGeometry x="860" y="598" width="420" height="152" as="geometry"/>
                </mxCell>
                <mxCell id="138" value="+ strategy_instances:Â Dict[str, Union[TradingStrategyInterface, Dict[str, Any]]]" style="text;strokeColor=none;fillColor=none;align=left;verticalAlign=top;spacingLeft=4;spacingRight=4;overflow=hidden;rotatable=0;points=[[0,0.5],[1,0.5]];portConstraint=eastwest;fontColor=#FFFFFF;" parent="127" vertex="1">
                    <mxGeometry y="40" width="420" height="26" as="geometry"/>
                </mxCell>
                <mxCell id="139" value="+ metric: float" style="text;strokeColor=none;fillColor=none;align=left;verticalAlign=top;spacingLeft=4;spacingRight=4;overflow=hidden;rotatable=0;points=[[0,0.5],[1,0.5]];portConstraint=eastwest;fontColor=#FFFFFF;" parent="127" vertex="1">
                    <mxGeometry y="66" width="420" height="26" as="geometry"/>
                </mxCell>
                <mxCell id="130" value="" style="line;strokeWidth=1;fillColor=none;align=left;verticalAlign=middle;spacingTop=-1;spacingLeft=3;spacingRight=3;rotatable=0;labelPosition=right;points=[];portConstraint=eastwest;strokeColor=inherit;fontColor=#FFFFFF;" parent="127" vertex="1">
                    <mxGeometry y="92" width="420" height="8" as="geometry"/>
                </mxCell>
                <mxCell id="140" value="+ get_strategy(metric: float): TradingStrategyInterface {abstract}" style="text;strokeColor=none;fillColor=none;align=left;verticalAlign=top;spacingLeft=4;spacingRight=4;overflow=hidden;rotatable=0;points=[[0,0.5],[1,0.5]];portConstraint=eastwest;fontColor=#FFFFFF;fontStyle=2" parent="127" vertex="1">
                    <mxGeometry y="100" width="420" height="26" as="geometry"/>
                </mxCell>
                <mxCell id="141" value="+ select_factory()" style="text;strokeColor=none;fillColor=none;align=left;verticalAlign=top;spacingLeft=4;spacingRight=4;overflow=hidden;rotatable=0;points=[[0,0.5],[1,0.5]];portConstraint=eastwest;fontColor=#FFFFFF;" parent="127" vertex="1">
                    <mxGeometry y="126" width="420" height="26" as="geometry"/>
                </mxCell>
                <mxCell id="142" value="ConcreteStrategyFactoryClient" style="swimlane;fontStyle=1;align=center;verticalAlign=top;childLayout=stackLayout;horizontal=1;startSize=30;horizontalStack=0;resizeParent=1;resizeParentMax=0;resizeLast=0;collapsible=1;marginBottom=0;fontColor=#ffffff;fillColor=#0050ef;strokeColor=#001DBC;" parent="1" vertex="1">
                    <mxGeometry x="1360" y="645" width="300" height="64" as="geometry"/>
                </mxCell>
                <mxCell id="145" value="" style="line;strokeWidth=1;fillColor=none;align=left;verticalAlign=middle;spacingTop=-1;spacingLeft=3;spacingRight=3;rotatable=0;labelPosition=right;points=[];portConstraint=eastwest;strokeColor=inherit;fontColor=#FFFFFF;" parent="142" vertex="1">
                    <mxGeometry y="30" width="300" height="8" as="geometry"/>
                </mxCell>
                <mxCell id="146" value="+ get_strategy(metric: float): TradingStrategyInterface" style="text;strokeColor=none;fillColor=none;align=left;verticalAlign=top;spacingLeft=4;spacingRight=4;overflow=hidden;rotatable=0;points=[[0,0.5],[1,0.5]];portConstraint=eastwest;fontColor=#FFFFFF;fontStyle=2" parent="142" vertex="1">
                    <mxGeometry y="38" width="300" height="26" as="geometry"/>
                </mxCell>
                <mxCell id="148" value="" style="endArrow=block;endSize=16;endFill=0;html=1;fontColor=#FFFFFF;exitX=0;exitY=0.5;exitDx=0;exitDy=0;entryX=1;entryY=0.5;entryDx=0;entryDy=0;strokeColor=#FFFFFF;" parent="1" source="142" target="139" edge="1">
                    <mxGeometry width="160" relative="1" as="geometry">
                        <mxPoint x="870.5999999999999" y="708" as="sourcePoint"/>
                        <mxPoint x="870" y="778" as="targetPoint"/>
                    </mxGeometry>
                </mxCell>
                <mxCell id="149" value="MomentumStrategyFactory" style="swimlane;fontStyle=1;align=center;verticalAlign=top;childLayout=stackLayout;horizontal=1;startSize=30;horizontalStack=0;resizeParent=1;resizeParentMax=0;resizeLast=0;collapsible=1;marginBottom=0;fontColor=#ffffff;fillColor=#0050ef;strokeColor=#001DBC;" parent="1" vertex="1">
                    <mxGeometry x="580" y="928" width="300" height="64" as="geometry"/>
                </mxCell>
                <mxCell id="150" value="" style="line;strokeWidth=1;fillColor=none;align=left;verticalAlign=middle;spacingTop=-1;spacingLeft=3;spacingRight=3;rotatable=0;labelPosition=right;points=[];portConstraint=eastwest;strokeColor=inherit;fontColor=#FFFFFF;" parent="149" vertex="1">
                    <mxGeometry y="30" width="300" height="8" as="geometry"/>
                </mxCell>
                <mxCell id="151" value="+ get_strategy(metric: float): TradingStrategyInterface" style="text;strokeColor=none;fillColor=none;align=left;verticalAlign=top;spacingLeft=4;spacingRight=4;overflow=hidden;rotatable=0;points=[[0,0.5],[1,0.5]];portConstraint=eastwest;fontColor=#FFFFFF;fontStyle=2" parent="149" vertex="1">
                    <mxGeometry y="38" width="300" height="26" as="geometry"/>
                </mxCell>
                <mxCell id="152" value="MovingAverageStrategy" style="swimlane;fontStyle=1;align=center;verticalAlign=top;childLayout=stackLayout;horizontal=1;startSize=30;horizontalStack=0;resizeParent=1;resizeParentMax=0;resizeLast=0;collapsible=1;marginBottom=0;fontColor=#ffffff;fillColor=#0050ef;strokeColor=#001DBC;" parent="1" vertex="1">
                    <mxGeometry x="920" y="928" width="300" height="64" as="geometry"/>
                </mxCell>
                <mxCell id="153" value="" style="line;strokeWidth=1;fillColor=none;align=left;verticalAlign=middle;spacingTop=-1;spacingLeft=3;spacingRight=3;rotatable=0;labelPosition=right;points=[];portConstraint=eastwest;strokeColor=inherit;fontColor=#FFFFFF;" parent="152" vertex="1">
                    <mxGeometry y="30" width="300" height="8" as="geometry"/>
                </mxCell>
                <mxCell id="154" value="+ get_strategy(metric: float): TradingStrategyInterface" style="text;strokeColor=none;fillColor=none;align=left;verticalAlign=top;spacingLeft=4;spacingRight=4;overflow=hidden;rotatable=0;points=[[0,0.5],[1,0.5]];portConstraint=eastwest;fontColor=#FFFFFF;fontStyle=2" parent="152" vertex="1">
                    <mxGeometry y="38" width="300" height="26" as="geometry"/>
                </mxCell>
                <mxCell id="155" value="SVMStrategyFactory" style="swimlane;fontStyle=1;align=center;verticalAlign=top;childLayout=stackLayout;horizontal=1;startSize=30;horizontalStack=0;resizeParent=1;resizeParentMax=0;resizeLast=0;collapsible=1;marginBottom=0;fontColor=#ffffff;fillColor=#0050ef;strokeColor=#001DBC;" parent="1" vertex="1">
                    <mxGeometry x="1240" y="928" width="300" height="64" as="geometry"/>
                </mxCell>
                <mxCell id="156" value="" style="line;strokeWidth=1;fillColor=none;align=left;verticalAlign=middle;spacingTop=-1;spacingLeft=3;spacingRight=3;rotatable=0;labelPosition=right;points=[];portConstraint=eastwest;strokeColor=inherit;fontColor=#FFFFFF;" parent="155" vertex="1">
                    <mxGeometry y="30" width="300" height="8" as="geometry"/>
                </mxCell>
                <mxCell id="157" value="+ get_strategy(metric: float): TradingStrategyInterface" style="text;strokeColor=none;fillColor=none;align=left;verticalAlign=top;spacingLeft=4;spacingRight=4;overflow=hidden;rotatable=0;points=[[0,0.5],[1,0.5]];portConstraint=eastwest;fontColor=#FFFFFF;fontStyle=2" parent="155" vertex="1">
                    <mxGeometry y="38" width="300" height="26" as="geometry"/>
                </mxCell>
                <mxCell id="158" value="" style="endArrow=block;endSize=16;endFill=0;html=1;fontColor=#FFFFFF;entryX=-0.002;entryY=0.995;entryDx=0;entryDy=0;entryPerimeter=0;exitX=0.5;exitY=0;exitDx=0;exitDy=0;strokeColor=#FFFFFF;" parent="1" source="149" target="141" edge="1">
                    <mxGeometry width="160" relative="1" as="geometry">
                        <mxPoint x="730" y="928" as="sourcePoint"/>
                        <mxPoint x="810.8400000000001" y="797.998" as="targetPoint"/>
                    </mxGeometry>
                </mxCell>
                <mxCell id="159" value="" style="endArrow=block;endSize=16;endFill=0;html=1;fontColor=#FFFFFF;exitX=0.5;exitY=0;exitDx=0;exitDy=0;entryX=0.502;entryY=1;entryDx=0;entryDy=0;entryPerimeter=0;strokeColor=#FFFFFF;" parent="1" source="152" target="141" edge="1">
                    <mxGeometry width="160" relative="1" as="geometry">
                        <mxPoint x="870" y="836.05" as="sourcePoint"/>
                        <mxPoint x="870.8400000000001" y="777.998" as="targetPoint"/>
                    </mxGeometry>
                </mxCell>
                <mxCell id="160" value="" style="endArrow=block;endSize=16;endFill=0;html=1;fontColor=#FFFFFF;exitX=0.5;exitY=0;exitDx=0;exitDy=0;entryX=0.999;entryY=1.003;entryDx=0;entryDy=0;entryPerimeter=0;strokeColor=#FFFFFF;" parent="1" source="155" target="141" edge="1">
                    <mxGeometry width="160" relative="1" as="geometry">
                        <mxPoint x="1420" y="836.05" as="sourcePoint"/>
                        <mxPoint x="1420.8400000000001" y="777.998" as="targetPoint"/>
                    </mxGeometry>
                </mxCell>
                <mxCell id="161" value="Aggregation" style="text;html=1;align=center;verticalAlign=middle;resizable=0;points=[];autosize=1;strokeColor=none;fillColor=none;" vertex="1" parent="1">
                    <mxGeometry x="870" y="361" width="90" height="30" as="geometry"/>
                </mxCell>
                <mxCell id="162" value="Aggregation" style="text;html=1;align=center;verticalAlign=middle;resizable=0;points=[];autosize=1;strokeColor=none;fillColor=none;" vertex="1" parent="1">
                    <mxGeometry x="490" y="361" width="90" height="30" as="geometry"/>
                </mxCell>
                <mxCell id="163" value="Dependency" style="text;html=1;align=center;verticalAlign=middle;resizable=0;points=[];autosize=1;strokeColor=none;fillColor=none;" vertex="1" parent="1">
                    <mxGeometry x="980" y="500" width="90" height="30" as="geometry"/>
                </mxCell>
                <mxCell id="164" value="Direct Association" style="text;html=1;align=center;verticalAlign=middle;resizable=0;points=[];autosize=1;strokeColor=none;fillColor=none;" vertex="1" parent="1">
                    <mxGeometry x="720" y="645" width="120" height="30" as="geometry"/>
                </mxCell>
            </root>
        </mxGraphModel>
    </diagram>
</mxfile>